<svg width="29" height="28" viewBox="0 0 29 28" fill="none" xmlns="http://www.w3.org/2000/svg">
<path fill-rule="evenodd" clip-rule="evenodd" d="M14.499 3.5C8.70097 3.5 4 8.20097 4 14.0003C4 18.6394 7.00829 22.5746 11.1807 23.9637C11.706 24.0597 11.8975 23.7355 11.8975 23.4571C11.8975 23.2082 11.8885 22.5475 11.8833 21.6716C8.96267 22.3058 8.34645 20.2638 8.34645 20.2638C7.86881 19.0513 7.18039 18.7284 7.18039 18.7284C6.22705 18.0767 7.25259 18.0896 7.25259 18.0896C8.30649 18.1644 8.86083 19.1718 8.86083 19.1718C9.79742 20.7762 11.3186 20.3128 11.9168 20.0446C12.0122 19.3659 12.2829 18.9031 12.5833 18.6407C10.2518 18.3758 7.80048 17.4746 7.80048 13.4511C7.80048 12.3051 8.2098 11.3678 8.88146 10.6336C8.77317 10.3681 8.41284 9.30064 8.98395 7.85483C8.98395 7.85483 9.86574 7.5725 11.8717 8.93129C12.709 8.69859 13.6076 8.58192 14.5003 8.57806C15.3918 8.58192 16.2903 8.69859 17.1289 8.93129C19.1336 7.5725 20.0135 7.85483 20.0135 7.85483C20.5865 9.30064 20.2262 10.3681 20.1179 10.6336C20.7908 11.3678 21.1976 12.3051 21.1976 13.4511C21.1976 17.485 18.7423 18.3726 16.4031 18.6323C16.7802 18.9566 17.1161 19.5973 17.1161 20.577C17.1161 21.9803 17.1032 23.1128 17.1032 23.4571C17.1032 23.7381 17.292 24.0649 17.8251 23.9624C21.9943 22.5708 25 18.6381 25 14.0003C25 8.20097 20.2984 3.5 14.499 3.5Z" fill="#FE6D3E"/>
</svg>
