<svg width="29" height="28" viewBox="0 0 29 28" fill="none" xmlns="http://www.w3.org/2000/svg">
<path d="M14.5005 3.81824C11.7353 3.81824 11.3883 3.83033 10.3023 3.87975C9.21839 3.92939 8.47853 4.10099 7.83116 4.35278C7.16151 4.61284 6.59347 4.96072 6.02755 5.52687C5.4612 6.09281 5.11333 6.66087 4.85243 7.33033C4.60002 7.97793 4.4282 8.71802 4.37942 9.80154C4.33084 10.8876 4.31812 11.2348 4.31812 14.0001C4.31812 16.7653 4.33042 17.1112 4.37963 18.1973C4.42948 19.2812 4.60108 20.0211 4.85264 20.6685C5.11291 21.3382 5.46078 21.9062 6.02691 22.4722C6.59262 23.0385 7.16067 23.3873 7.82989 23.6473C8.47769 23.8991 9.21775 24.0707 10.3014 24.1204C11.3875 24.1698 11.7343 24.1819 14.4992 24.1819C17.2645 24.1819 17.6105 24.1698 18.6965 24.1204C19.7804 24.0707 20.5211 23.8991 21.1689 23.6473C21.8384 23.3873 22.4056 23.0385 22.9713 22.4722C23.5376 21.9062 23.8855 21.3382 24.1464 20.6687C24.3967 20.0211 24.5685 19.281 24.6194 18.1975C24.6682 17.1114 24.6809 16.7653 24.6809 14.0001C24.6809 11.2348 24.6682 10.8878 24.6194 9.80175C24.5685 8.71781 24.3967 7.97793 24.1464 7.33054C23.8855 6.66087 23.5376 6.09281 22.9713 5.52687C22.4049 4.96051 21.8386 4.61263 21.1683 4.35278C20.5192 4.10099 19.7789 3.92939 18.695 3.87975C17.609 3.83033 17.2633 3.81824 14.4973 3.81824H14.5005ZM13.5871 5.65309C13.8582 5.65266 14.1607 5.65309 14.5005 5.65309C17.2189 5.65309 17.5411 5.66284 18.6147 5.71163C19.6073 5.75703 20.1461 5.9229 20.505 6.06227C20.9802 6.24681 21.3189 6.46742 21.675 6.82378C22.0314 7.18015 22.252 7.51954 22.437 7.99469C22.5763 8.35318 22.7424 8.89196 22.7876 9.88469C22.8364 10.958 22.847 11.2804 22.847 13.9977C22.847 16.715 22.8364 17.0374 22.7876 18.1108C22.7422 19.1035 22.5763 19.6423 22.437 20.0008C22.2524 20.4759 22.0314 20.8142 21.675 21.1704C21.3187 21.5268 20.9804 21.7474 20.505 21.9319C20.1465 22.0719 19.6073 22.2374 18.6147 22.2827C17.5414 22.3315 17.2189 22.3421 14.5005 22.3421C11.7818 22.3421 11.4596 22.3315 10.3863 22.2827C9.3936 22.2369 8.85483 22.0711 8.49572 21.9317C8.02058 21.7471 7.6812 21.5265 7.32484 21.1702C6.96849 20.8138 6.74789 20.4753 6.56293 19.9999C6.42357 19.6414 6.25748 19.1026 6.2123 18.1099C6.16351 17.0366 6.15376 16.7141 6.15376 13.9952C6.15376 11.2762 6.16351 10.9555 6.2123 9.88215C6.25769 8.88942 6.42357 8.35063 6.56293 7.99172C6.74747 7.51657 6.96849 7.17718 7.32484 6.82081C7.6812 6.46445 8.02058 6.24384 8.49572 6.05887C8.85461 5.91887 9.3936 5.75342 10.3863 5.70781C11.3255 5.66539 11.6895 5.65266 13.5871 5.65054V5.65309ZM19.9353 7.34369C19.2608 7.34369 18.7135 7.89033 18.7135 8.56508C18.7135 9.23963 19.2608 9.7869 19.9353 9.7869C20.6098 9.7869 21.1571 9.23963 21.1571 8.56508C21.1571 7.89054 20.6098 7.34327 19.9353 7.34327V7.34369ZM14.5005 8.77127C11.613 8.77127 9.27184 11.1124 9.27184 14.0001C9.27184 16.8877 11.613 19.2278 14.5005 19.2278C17.388 19.2278 19.7283 16.8877 19.7283 14.0001C19.7283 11.1124 17.3878 8.77127 14.5003 8.77127H14.5005ZM14.5005 10.6061C16.3747 10.6061 17.8943 12.1255 17.8943 14.0001C17.8943 15.8744 16.3747 17.394 14.5005 17.394C12.626 17.394 11.1066 15.8744 11.1066 14.0001C11.1066 12.1255 12.626 10.6061 14.5005 10.6061Z" fill="#FE6D3E"/>
</svg>
