<svg width="29" height="28" viewBox="0 0 29 28" fill="none" xmlns="http://www.w3.org/2000/svg">
<path fill-rule="evenodd" clip-rule="evenodd" d="M5.99115 4.08337C5.21366 4.08337 4.58337 4.71366 4.58337 5.49115V22.5089C4.58337 23.2864 5.21366 23.9166 5.99115 23.9166H23.0089C23.7864 23.9166 24.4167 23.2864 24.4167 22.5089V5.49115C24.4167 4.71366 23.7864 4.08337 23.0089 4.08337H5.99115ZM9.03505 10.2426C9.98527 10.2426 10.7556 9.47231 10.7556 8.52209C10.7556 7.57186 9.98527 6.80155 9.03505 6.80155C8.08482 6.80155 7.31451 7.57186 7.31451 8.52209C7.31451 9.47231 8.08482 10.2426 9.03505 10.2426ZM12.3313 11.5141H15.1828V12.8204C15.1828 12.8204 15.9566 11.2728 18.0619 11.2728C19.94 11.2728 21.4958 12.198 21.4958 15.0181V20.9648H18.5409V15.7387C18.5409 14.0751 17.6527 13.8921 16.976 13.8921C15.5714 13.8921 15.331 15.1036 15.331 15.9557V20.9648H12.3313V11.5141ZM10.5349 11.5142H7.53521V20.9648H10.5349V11.5142Z" fill="#FE6D3E"/>
</svg>
